Coordinates
version=1
nRows=10
nColumns=40
inDegrees=yes

Units are S.I. units (second, meters, Newtons, ...)
Angles are in degrees.

endheader
time	pelvis_tilt	pelvis_list	pelvis_rotation	pelvis_tx	pelvis_ty	pelvis_tz	hip_flexion_r	hip_adduction_r	hip_rotation_r	knee_angle_r	knee_angle_r_beta	ankle_angle_r	subtalar_angle_r	mtp_angle_r	hip_flexion_l	hip_adduction_l	hip_rotation_l	knee_angle_l	knee_angle_l_beta	ankle_angle_l	subtalar_angle_l	mtp_angle_l	lumbar_extension	lumbar_bending	lumbar_rotation	arm_flex_r	arm_add_r	arm_rot_r	elbow_flex_r	pro_sup_r	wrist_flex_r	wrist_dev_r	arm_flex_l	arm_add_l	arm_rot_l	elbow_flex_l	pro_sup_l	wrist_flex_l	wrist_dev_l
      1.65000000	      0.21104793	      2.17971200	      7.36120742	      0.48448508	      0.93081819	     -1.49157123	     25.71139318	     -9.96503951	    -25.53719558	    -16.95787483	     -0.29597075	      1.63409875	     -2.04130478	      2.78934577	    -15.40342439	      0.65398374	     11.86846678	    -13.29977238	     -0.23212482	      5.49420950	     -8.76091658	    -16.46708518	     -5.09996516	     -2.72830411	     -8.73088586	     -6.98147565	     -9.42721994	    -21.53945956	     16.17870661	     89.95437384	      0.00000000	      0.00000000	     15.32490087	     16.60227438	      3.74102587	     38.04964348	     89.95437384	      0.00000000	      0.00000000
      1.66000000	      0.04875182	      2.30316912	      7.45049147	      0.49643482	      0.92935710	     -1.48942531	     25.51497395	     -9.94806576	    -24.92348314	    -17.60913457	     -0.30733738	      1.37798426	     -2.01918867	      2.75048593	    -15.62520514	      0.83960565	     11.60990590	    -14.02677037	     -0.24481333	      5.26569174	     -8.42762215	    -16.09115145	     -4.67954847	     -2.94451528	     -8.69003575	     -7.51280460	     -9.38357473	    -21.50612406	     16.40276361	     89.95437384	      0.00000000	      0.00000000	     14.51749524	     16.48446855	      3.77306067	     37.93896404	     89.95437384	      0.00000000	      0.00000000
      1.67000000	      0.65108497	      2.01248375	      7.63857510	      0.50881935	      0.92926425	     -1.48748571	     24.79183173	     -9.78562459	    -26.16968813	    -18.83333936	     -0.32870378	     -0.55187361	     -3.22374082	      3.10000075	    -16.73447500	      1.64457276	     11.81448163	    -14.51439670	     -0.25332401	      4.78585474	     -8.31895296	    -15.93245538	     -5.08173790	     -2.51184041	     -8.78941682	     -7.50677960	     -9.49345496	    -21.84474457	     16.03981567	     89.95437384	      0.00000000	      0.00000000	     13.95073347	     16.00775391	      4.48867183	     37.26462532	     89.95437384	      0.00000000	      0.00000000
      1.68000000	      1.11950434	      1.59639227	      7.85176988	      0.52075481	      0.92950535	     -1.48535109	     23.98735415	     -9.38890274	    -26.78813138	    -19.01356704	     -0.33184935	     -3.25233091	     -3.88466313	      3.48197536	    -17.48993093	      2.59984084	     11.78673442	    -15.25482837	     -0.26624698	      3.91852501	     -8.26605505	    -15.73174691	     -5.34874891	     -1.97213130	     -8.95419964	     -7.52115487	     -9.53344718	    -22.36634428	     15.90237572	     89.95437384	      0.00000000	      0.00000000	     13.31028909	     15.54366228	      5.35901145	     36.56148846	     89.95437384	      0.00000000	      0.00000000
      1.69000000	      1.19262622	      1.38848189	      7.88299263	      0.53244473	      0.92915575	     -1.48266833	     23.93815707	     -9.21251754	    -25.84209526	    -19.88455305	     -0.34705092	     -4.19074070	     -3.57078523	      3.44041467	    -17.72284505	      3.22789071	     11.57090463	    -16.23718460	     -0.28339233	      3.39023644	     -7.91789895	    -15.29689957	     -5.21964927	     -1.77091619	     -8.91129578	     -7.74807528	     -9.53504017	    -22.38540270	     16.14991792	     89.95437384	      0.00000000	      0.00000000	     12.51571841	     15.31722006	      5.59020881	     36.05969647	     89.95437384	      0.00000000	      0.00000000
      1.70000000	      1.63108992	      0.09498290	      7.78167739	      0.54499284	      0.92962325	     -1.47886535	     23.17080644	     -7.50600557	    -25.66257880	    -19.94741230	     -0.34814802	     -6.80324562	     -4.77476678	      1.20560367	    -17.93793779	      5.57308107	     13.84035529	    -17.95595815	     -0.31339059	      1.77189517	    -10.70886445	    -15.93898305	     -5.26526241	     -0.35699203	     -8.60689007	     -7.69144112	     -9.60536085	    -23.27853652	     15.78957210	     89.95437384	      0.00000000	      0.00000000	     11.98309779	     14.53369276	      6.95294485	     34.75961874	     89.95437384	      0.00000000	      0.00000000
      1.71000000	      1.62385107	     -0.12672532	      7.63640583	      0.55715010	      0.92977795	     -1.47589988	     23.34882007	     -7.26285406	    -25.39063768	    -21.62373252	     -0.37740533	     -6.76687420	     -5.29750040	      0.81656246	    -17.87625194	      6.18593776	     13.81814988	    -19.31047847	     -0.33703143	      0.70684714	     -9.79986448	    -15.36257918	     -4.96586576	     -0.17496206	     -8.40406373	     -7.73934245	     -9.65404841	    -23.25649938	     15.64358089	     89.95437384	      0.00000000	      0.00000000	     11.24432831	     14.11235157	      7.66492510	     33.64267922	     89.95437384	      0.00000000	      0.00000000
      1.72000000	      1.68327384	     -0.25148243	      7.41377021	      0.56918460	      0.93027847	     -1.47300262	     23.37892358	     -6.93049199	    -24.64578249	    -23.11679800	     -0.40346424	     -6.34729237	     -5.67205212	      0.56660375	    -17.73567480	      6.67471571	     13.76036968	    -20.91698657	     -0.36507029	     -0.52611224	     -8.82306756	    -14.68429838	     -4.77572600	     -0.07673460	     -8.10970976	     -7.78721477	     -9.74152125	    -23.04829332	     15.53925299	     89.95437384	      0.00000000	      0.00000000	     10.45062806	     13.76606937	      8.04586985	     32.61205320	     89.95437384	      0.00000000	      0.00000000
      1.73000000	      1.32767769	     -0.90058731	      7.04421520	      0.58120035	      0.93031544	     -1.46913107	     23.67750712	     -5.55793591	    -23.03855783	    -23.79435604	     -0.41528986	     -6.27320366	     -7.58937888	     -0.06450942	    -16.64954281	      7.99984076	     14.99886705	    -23.47742493	     -0.40975837	     -2.06538274	     -8.81598116	    -14.26925747	     -4.01073450	      0.46398795	     -7.82784517	     -7.63347320	     -9.80989951	    -23.19462520	     15.21248826	     89.95437384	      0.00000000	      0.00000000	      9.65392148	     13.11406766	      9.72436129	     31.10876347	     89.95437384	      0.00000000	      0.00000000
      1.74000000	      1.43443267	     -1.26349353	      6.79987117	      0.59341283	      0.93128280	     -1.46558921	     23.32171416	     -4.65337597	    -22.10460927	    -24.57234496	     -0.42886832	     -5.56862724	     -8.39197585	     -0.35333334	    -16.12947869	      8.90171822	     15.42620563	    -25.64434027	     -0.44757817	     -4.13312455	     -7.56275893	    -13.53391310	     -3.79212779	      0.75967581	     -7.54235622	     -7.58785571	     -9.85356771	    -23.04508285	     15.12240795	     89.95437384	      0.00000000	      0.00000000	      8.79401616	     12.88718964	      9.94059179	     29.88199004	     89.95437384	      0.00000000	      0.00000000
